<?xml version="1.0" encoding="iso-8859-1"?>
<!-- Generator: Adobe Illustrator 16.0.0, SVG Export Plug-In . SVG Version: 6.00 Build 0)  -->
<!DOCTYPE svg PUBLIC "-//W3C//DTD SVG 1.1//EN" "http://www.w3.org/Graphics/SVG/1.1/DTD/svg11.dtd">
<svg version="1.1" id="Capa_1" xmlns="http://www.w3.org/2000/svg" xmlns:xlink="http://www.w3.org/1999/xlink" x="0px" y="0px"
	 width="611.998px" height="611.997px" viewBox="0 0 611.998 611.997" style="enable-background:new 0 0 611.998 611.997;"
	 xml:space="preserve">
<g>
	<g>
		<path d="M469.485,108.25c-1.814-0.083-3.54,0.614-4.837,1.864c-1.294,1.25-2.021,2.972-2.021,4.767v145.27
			c0,1.901,0.816,3.712,2.243,4.973l100.463,88.743c1.265,1.114,2.83,1.662,4.39,1.662c1.831,0,3.652-0.753,4.959-2.227
			c24.065-27.051,37.315-61.781,37.315-97.792C611.998,175.625,549.4,110.94,469.485,108.25z M569.042,339.438l-93.145-82.28
			V121.911c69.411,5.789,122.83,63.208,122.83,133.599C598.728,286.07,588.231,315.619,569.042,339.438z"/>
		<path d="M442.849,279.25V133.957c0-1.801-0.733-3.523-2.023-4.771c-1.298-1.254-3.122-1.951-4.841-1.861
			c-79.792,2.784-142.29,67.451-142.29,147.224c0,35.557,12.653,68.214,33.688,93.709l-11.84,23.026
			c-10.771-2.498-22.234-1.735-32.69,2.192l-76.206-59.008c0.68-3.51,1.025-7.047,1.025-10.562
			c0-31.407-25.562-56.955-56.981-56.955c-31.407,0-56.955,25.548-56.955,56.955c0,1.851,0.1,3.712,0.305,5.613L3.355,381.05
			c-1.529,0.872-2.654,2.312-3.119,4.011s-0.239,3.51,0.63,5.042l17.357,30.512c1.808,3.185,5.859,4.292,9.047,2.487l91.546-52.027
			c9.398,6.336,20.552,9.783,31.874,9.783c9.75,0,19.218-2.455,27.655-7.137l70.626,54.689c-2.041,5.955-3.072,12.108-3.072,18.369
			c0,31.416,25.551,56.975,56.961,56.975c31.396,0,56.941-25.559,56.941-56.975c0-8.6-1.954-17.082-5.677-24.752l10.918-21.229
			c22.237,13.455,48.29,21.212,76.123,21.212c39.276,0,76.223-15.254,104.03-42.948c1.301-1.294,2.004-3.068,1.95-4.9
			c-0.056-1.834-0.865-3.56-2.239-4.773L442.849,279.25z M353.911,393.431l-13.161,25.594c-1.028,1.997-0.975,4.369,0.133,6.32
			c3.696,6.485,5.65,13.896,5.65,21.435c0,24.098-19.59,43.704-43.672,43.704c-24.092,0-43.691-19.606-43.691-43.704
			c0-6.125,1.297-12.136,3.852-17.875c1.244-2.793,0.418-6.071-2-7.945l-78.167-60.527c-1.191-0.923-2.627-1.391-4.064-1.391
			c-1.291,0-2.578,0.372-3.699,1.128c-7.226,4.854-15.666,7.418-24.4,7.418c-9.846,0-19.533-3.403-27.279-9.594
			c-2.124-1.695-5.066-1.921-7.418-0.584l-89.513,50.874l-10.798-18.979l88.869-50.492c2.465-1.403,3.769-4.217,3.241-7.003
			c-0.527-2.794-0.783-5.378-0.783-7.902c0-24.088,19.596-43.685,43.685-43.685c24.105,0,43.711,19.596,43.711,43.685
			c0,3.798-0.531,7.643-1.583,11.425c-0.72,2.598,0.206,5.368,2.332,7.017l82.619,63.971c1.958,1.51,4.578,1.815,6.821,0.79
			c10.225-4.671,21.786-5.269,32.209-1.686c3.105,1.062,6.549-0.305,8.055-3.244l12.039-23.415c0.574,0.574,1.194,1.088,1.775,1.648
			c1.532,1.483,3.088,2.937,4.684,4.353c1.132,1.009,2.27,2.001,3.431,2.973c1.479,1.237,2.996,2.429,4.525,3.609
			C352.185,392.034,353.018,392.773,353.911,393.431z M441.167,408.737c-29.983,0-57.697-9.886-80.063-26.566
			c-0.07-0.053-0.146-0.103-0.216-0.156c-1.434-1.071-2.83-2.189-4.22-3.317c-0.564-0.461-1.128-0.926-1.686-1.394
			c-1.244-1.045-2.479-2.103-3.683-3.191c-0.803-0.729-1.586-1.485-2.375-2.235c-1.562-1.483-3.089-2.999-4.582-4.555
			c-1.034-1.082-2.066-2.163-3.068-3.281c-21.314-23.76-34.31-55.134-34.31-89.492c0-70.284,53.322-127.68,122.618-133.552v141.352
			c0,2.203,1.118,4.157,2.807,5.361l98.297,86.815C506.053,396.642,474.534,408.737,441.167,408.737z"/>
		<path d="M387.573,364.027c-35.623-22.668-51.514-55.837-47.23-98.582c3.277-32.714,17.652-59.082,17.795-59.343
			c1.768-3.208,0.61-7.246-2.598-9.017c-3.208-1.768-7.239-0.617-9.014,2.591c-0.627,1.138-61.941,114.54,33.921,175.544
			c1.104,0.703,2.339,1.035,3.557,1.035c2.192,0,4.339-1.085,5.604-3.072C391.574,370.096,390.665,365.991,387.573,364.027z"/>
		<path d="M493.945,137.901c-3.662,0.063-6.582,3.082-6.525,6.745l1.669,101.708c0.062,3.626,3.019,6.525,6.631,6.525
			c0.04,0,0.073,0,0.113,0c3.662-0.063,6.582-3.082,6.525-6.745l-1.669-101.707C500.626,140.758,497.551,137.842,493.945,137.901z"
			/>
	</g>
</g>
<g>
</g>
<g>
</g>
<g>
</g>
<g>
</g>
<g>
</g>
<g>
</g>
<g>
</g>
<g>
</g>
<g>
</g>
<g>
</g>
<g>
</g>
<g>
</g>
<g>
</g>
<g>
</g>
<g>
</g>
</svg>
